<?xml version="1.0" encoding="utf-8"?><svg xmlns="http://www.w3.org/2000/svg" xmlns:xlink="http://www.w3.org/1999/xlink"><symbol viewBox="0 0 29.448 23.04" id="marker" xmlns="http://www.w3.org/2000/svg"><path d="M24.844 13.037l4.534 9.315a.442.442 0 0 1-.431.689H.501a.442.442 0 0 1-.431-.689l4.531-9.315a.525.525 0 0 1 .431-.269h3.891a.544.544 0 0 1 .36.166c.264.3.532.6.8.9s.51.563.764.853H6.234a.525.525 0 0 0-.431.269l-3 6.171h23.85l-3-6.171a.525.525 0 0 0-.431-.269h-4.631c.254-.29.51-.574.764-.853.269-.3.539-.593.8-.9a.544.544 0 0 1 .359-.165h3.9a.525.525 0 0 1 .43.268zm-3.453-6.365c0 5.09-4.237 6.044-6.23 10.935a.476.476 0 0 1-.883 0c-1.8-4.41-5.42-5.619-6.113-9.548A6.816 6.816 0 0 1 14.07.033a6.672 6.672 0 0 1 7.321 6.639zm-3.148 0a3.523 3.523 0 1 0-3.523 3.523 3.523 3.523 0 0 0 3.522-3.523z"/></symbol><symbol viewBox="0 0 23.923 23.869" id="phone" xmlns="http://www.w3.org/2000/svg"><path d="M23.386 18.879l-3.695-3.695a1.926 1.926 0 0 0-2.716.051l-1.861 1.861-.367-.2a18.523 18.523 0 0 1-4.477-3.238 18.626 18.626 0 0 1-3.244-4.49c-.069-.125-.135-.245-.2-.359l1.249-1.247.614-.615a1.925 1.925 0 0 0 .05-2.716L5.044.536a1.924 1.924 0 0 0-2.716.051L1.286 1.634l.028.028a6.021 6.021 0 0 0-.857 1.514 6.275 6.275 0 0 0-.382 1.53c-.488 4.044 1.36 7.741 6.376 12.756 6.933 6.933 12.52 6.409 12.761 6.383a6.242 6.242 0 0 0 1.539-.387 6 6 0 0 0 1.509-.852l.023.02 1.055-1.033a1.928 1.928 0 0 0 .048-2.714z"/></symbol></svg>